<svg width="495" height="496" viewBox="0 0 495 496" fill="none" xmlns="http://www.w3.org/2000/svg">
<g clip-path="url(#clip0_398_2)">
<path d="M494.57 248.8C493.94 388 383.22 496.46 242.71 495.53C108.85 494.65 -0.549888 382.79 0.000111653 247.39C0.560112 110.51 112 -0.630048 248 0.00995243C384.61 0.649952 495.19 112.24 494.57 248.8ZM83.6001 142.02V346.65C124.52 346.65 164.47 348.65 204.11 345.99C232.91 344.05 250.58 325.43 255.6 300.89C261.5 272.04 252.07 249.4 227.07 233.35C248.57 222.07 252.51 203.2 248.07 182C243.39 159.57 229.07 143.67 206.07 142.59C165.78 140.65 125.29 142.02 83.6001 142.02ZM414.19 296.65C398.28 296.56 383.64 290.08 371.55 308.9C362.39 323.18 343.62 320.25 328.63 314.9C315.09 310.09 308.46 299.64 311.57 282.9H415C419.28 229.23 396.6 197.01 354.26 193.32C303.43 188.88 268.33 217.95 264.61 267.54C261.1 314.47 288.49 347.9 333.18 351.66C377.41 355.42 415.57 337.38 414.19 296.65ZM384 153.71H300.77V177.34H384V153.71Z" fill="white"/>
<path d="M132.08 309.85V255.34C151.77 255.34 170.99 254.45 190.08 255.62C205.9 256.62 211.32 267.96 211.48 282.62C211.64 297.28 206.93 308.8 190.62 309.62C171.53 310.65 152.34 309.85 132.08 309.85Z" fill="white"/>
<path d="M132.86 177.65C151.62 177.65 169.54 177.39 187.45 177.74C202.45 178.02 204.88 188.99 204.72 200.62C204.56 212.25 201.72 222.87 186.72 222.93C169.41 223 152.1 222.93 132.87 222.93L132.86 177.65Z" fill="white"/>
<path d="M310.75 254.02C316.99 231.27 327.94 222.71 347.65 223.92C363.96 224.92 371.18 232.65 374.79 254.02H310.75Z" fill="white"/>
</g>
<defs>
<clipPath id="clip0_398_2">
<rect width="494.57" height="495.53" fill="white"/>
</clipPath>
</defs>
</svg>
